<?xml version="1.0" encoding="UTF-8" standalone="no"?>
<svg
   xmlns:dc="http://purl.org/dc/elements/1.1/"
   xmlns:cc="http://creativecommons.org/ns#"
   xmlns:rdf="http://www.w3.org/1999/02/22-rdf-syntax-ns#"
   xmlns:svg="http://www.w3.org/2000/svg"
   xmlns="http://www.w3.org/2000/svg"
   xmlns:sodipodi="http://sodipodi.sourceforge.net/DTD/sodipodi-0.dtd"
   xmlns:inkscape="http://www.inkscape.org/namespaces/inkscape"
   version="1.1"
   width="716.45667"
   height="468.42523"
   viewBox="0 0 716.45728 468.42561"
   id="svg4030"
   inkscape:version="0.48.4 r9939"
   sodipodi:docname="peetz0r_tft_lcd.svg">
  <metadata
     id="metadata4060">
    <rdf:RDF>
      <cc:Work
         rdf:about="">
        <dc:format>image/svg+xml</dc:format>
        <dc:type
           rdf:resource="http://purl.org/dc/dcmitype/StillImage" />
      </cc:Work>
    </rdf:RDF>
  </metadata>
  <defs
     id="defs4058" />
  <sodipodi:namedview
     pagecolor="#ffffff"
     bordercolor="#666666"
     borderopacity="1"
     objecttolerance="10"
     gridtolerance="10"
     guidetolerance="10"
     inkscape:pageopacity="0"
     inkscape:pageshadow="2"
     inkscape:window-width="1600"
     inkscape:window-height="850"
     id="namedview4056"
     showgrid="true"
     inkscape:document-units="mm"
     units="mm"
     inkscape:zoom="2.0953931"
     inkscape:cx="165.27035"
     inkscape:cy="285.07077"
     inkscape:window-x="0"
     inkscape:window-y="25"
     inkscape:window-maximized="1"
     inkscape:current-layer="svg4030"
     fit-margin-top="0"
     fit-margin-left="0"
     fit-margin-right="0"
     fit-margin-bottom="0">
    <inkscape:grid
       type="xygrid"
       id="grid4062"
       empspacing="10"
       visible="true"
       enabled="true"
       snapvisiblegridlinesonly="true"
       units="mm"
       spacingx="1mm"
       spacingy="1mm"
       color="#0000ff"
       opacity="0.25098039"
       empcolor="#0000ff"
       empopacity="0.75294118"
       dotted="false"
       originx="3.0999999mm"
       originy="3.1000194mm" />
  </sodipodi:namedview>
  <!-- Front-->
  <g
     transform="translate(0.35433099,0.35432009)"
     id="g4032">
    <polygon
       style="fill:none;stroke:#000000;stroke-width:0.70866197"
       points="88.58275,0 88.58275,10.62993 102.75599,10.62993 102.75599,0 116.92923,0 116.92923,10.62993 131.10247,10.62993 131.10247,0 145.27571,0 145.27571,10.62993 159.44895,10.62993 159.44895,0 173.62219,0 173.62219,10.62993 187.79543,10.62993 187.79543,0 201.96867,0 201.96867,10.62993 216.14191,10.62993 216.14191,0 230.31515,0 230.31515,10.62993 244.48839,10.62993 244.48839,0 258.66163,0 258.66163,10.62993 281.69315,10.62993 281.69315,0 304.72466,0 304.72466,19.488205 294.09473,19.488205 294.09473,38.97641 304.72466,38.97641 304.72466,53.14965 294.09473,53.14965 294.09473,67.32289 304.72466,67.32289 304.72466,81.49613 294.09473,81.49613 294.09473,95.66937 304.72466,95.66937 304.72466,109.84261 294.09473,109.84261 294.09473,124.01585 304.72466,124.01585 304.72466,138.18909 294.09473,138.18909 294.09473,152.36233 304.72466,152.36233 304.72466,166.53557 294.09473,166.53557 294.09473,180.70881 304.72466,180.70881 304.72466,194.88205 294.09473,194.88205 294.09473,214.37026 304.72466,214.37026 304.72466,233.85846 281.69315,233.85846 281.69315,223.22853 258.66163,223.22853 258.66163,233.85846 244.48839,233.85846 244.48839,223.22853 230.31515,223.22853 230.31515,233.85846 216.14191,233.85846 216.14191,223.22853 201.96867,223.22853 201.96867,233.85846 187.79543,233.85846 187.79543,223.22853 173.62219,223.22853 173.62219,233.85846 159.44895,233.85846 159.44895,223.22853 145.27571,223.22853 145.27571,233.85846 131.10247,233.85846 131.10247,223.22853 116.92923,223.22853 116.92923,233.85846 102.75599,233.85846 102.75599,223.22853 88.58275,223.22853 88.58275,233.85846 74.40951,233.85846 74.40951,223.22853 60.23627,223.22853 60.23627,233.85846 46.06303,233.85846 46.06303,223.22853 23.031515,223.22853 23.031515,233.85846 0,233.85846 0,214.37026 10.62993,214.37026 10.62993,194.88205 0,194.88205 0,180.70881 10.62993,180.70881 10.62993,166.53557 0,166.53557 0,152.36233 10.62993,152.36233 10.62993,138.18909 0,138.18909 0,124.01585 10.62993,124.01585 10.62993,109.84261 0,109.84261 0,95.66937 10.62993,95.66937 10.62993,81.49613 0,81.49613 0,67.32289 10.62993,67.32289 10.62993,53.14965 0,53.14965 0,38.97641 10.62993,38.97641 10.62993,19.488205 0,19.488205 0,0 23.031515,0 23.031515,10.62993 46.06303,10.62993 46.06303,0 60.23627,0 60.23627,10.62993 74.40951,10.62993 74.40951,0 "
       id="polygon4034" />
  </g>
  <!-- Back-->
  <g
     transform="translate(305.07899,0.35432009)"
     id="g4036">
    <polygon
       style="fill:none;stroke:#000000;stroke-width:0.70866197"
       points="88.58275,0 88.58275,10.62993 102.75599,10.62993 102.75599,0 116.92923,0 116.92923,10.62993 131.10247,10.62993 131.10247,0 145.27571,0 145.27571,10.62993 159.44895,10.62993 159.44895,0 173.62219,0 173.62219,10.62993 187.79543,10.62993 187.79543,0 201.96867,0 201.96867,10.62993 216.14191,10.62993 216.14191,0 230.31515,0 230.31515,10.62993 244.48839,10.62993 244.48839,0 258.66163,0 258.66163,10.62993 281.69315,10.62993 281.69315,0 304.72466,0 304.72466,19.488205 294.09473,19.488205 294.09473,38.97641 304.72466,38.97641 304.72466,53.14965 294.09473,53.14965 294.09473,67.32289 304.72466,67.32289 304.72466,81.49613 294.09473,81.49613 294.09473,95.66937 304.72466,95.66937 304.72466,109.84261 294.09473,109.84261 294.09473,124.01585 304.72466,124.01585 304.72466,138.18909 294.09473,138.18909 294.09473,152.36233 304.72466,152.36233 304.72466,166.53557 294.09473,166.53557 294.09473,180.70881 304.72466,180.70881 304.72466,194.88205 294.09473,194.88205 294.09473,214.37026 304.72466,214.37026 304.72466,233.85846 281.69315,233.85846 281.69315,223.22853 258.66163,223.22853 258.66163,233.85846 244.48839,233.85846 244.48839,223.22853 230.31515,223.22853 230.31515,233.85846 216.14191,233.85846 216.14191,223.22853 201.96867,223.22853 201.96867,233.85846 187.79543,233.85846 187.79543,223.22853 173.62219,223.22853 173.62219,233.85846 159.44895,233.85846 159.44895,223.22853 145.27571,223.22853 145.27571,233.85846 131.10247,233.85846 131.10247,223.22853 116.92923,223.22853 116.92923,233.85846 102.75599,233.85846 102.75599,223.22853 88.58275,223.22853 88.58275,233.85846 74.40951,233.85846 74.40951,223.22853 60.23627,223.22853 60.23627,233.85846 46.06303,233.85846 46.06303,223.22853 23.031515,223.22853 23.031515,233.85846 0,233.85846 0,214.37026 10.62993,214.37026 10.62993,194.88205 0,194.88205 0,180.70881 10.62993,180.70881 10.62993,166.53557 0,166.53557 0,152.36233 10.62993,152.36233 10.62993,138.18909 0,138.18909 0,124.01585 10.62993,124.01585 10.62993,109.84261 0,109.84261 0,95.66937 10.62993,95.66937 10.62993,81.49613 0,81.49613 0,67.32289 10.62993,67.32289 10.62993,53.14965 0,53.14965 0,38.97641 10.62993,38.97641 10.62993,19.488205 0,19.488205 0,0 23.031515,0 23.031515,10.62993 46.06303,10.62993 46.06303,0 60.23627,0 60.23627,10.62993 74.40951,10.62993 74.40951,0 "
       id="polygon4038" />
  </g>
  <!-- Left-->
  <g
     transform="translate(609.80365,0.35432009)"
     id="g4040">
    <polygon
       style="fill:none;stroke:#000000;stroke-width:0.70866197"
       points="95.66937,0 95.66937,19.488205 106.2993,19.488205 106.2993,38.97641 95.66937,38.97641 95.66937,53.14965 106.2993,53.14965 106.2993,67.32289 95.66937,67.32289 95.66937,81.49613 106.2993,81.49613 106.2993,95.66937 95.66937,95.66937 95.66937,109.84261 106.2993,109.84261 106.2993,124.01585 95.66937,124.01585 95.66937,138.18909 106.2993,138.18909 106.2993,152.36233 95.66937,152.36233 95.66937,166.53557 106.2993,166.53557 106.2993,180.70881 95.66937,180.70881 95.66937,194.88205 106.2993,194.88205 106.2993,214.37026 95.66937,214.37026 95.66937,233.85846 83.267785,233.85846 83.267785,223.22853 60.23627,223.22853 60.23627,233.85846 46.06303,233.85846 46.06303,223.22853 23.031515,223.22853 23.031515,233.85846 10.62993,233.85846 10.62993,214.37026 0,214.37026 0,194.88205 10.62993,194.88205 10.62993,180.70881 0,180.70881 0,166.53557 10.62993,166.53557 10.62993,152.36233 0,152.36233 0,138.18909 10.62993,138.18909 10.62993,124.01585 0,124.01585 0,109.84261 10.62993,109.84261 10.62993,95.66937 0,95.66937 0,81.49613 10.62993,81.49613 10.62993,67.32289 0,67.32289 0,53.14965 10.62993,53.14965 10.62993,38.97641 0,38.97641 0,19.488205 10.62993,19.488205 10.62993,0 23.031515,0 23.031515,10.62993 46.06303,10.62993 46.06303,0 60.23627,0 60.23627,10.62993 83.267785,10.62993 83.267785,0 "
       id="polygon4042" />
  </g>
  <!-- Right-->
  <g
     transform="translate(609.80365,234.21282)"
     id="g4044">
    <polygon
       style="fill:none;stroke:#000000;stroke-width:0.70866197"
       points="95.66937,0 95.66937,19.488205 106.2993,19.488205 106.2993,38.97641 95.66937,38.97641 95.66937,53.14965 106.2993,53.14965 106.2993,67.32289 95.66937,67.32289 95.66937,81.49613 106.2993,81.49613 106.2993,95.66937 95.66937,95.66937 95.66937,109.84261 106.2993,109.84261 106.2993,124.01585 95.66937,124.01585 95.66937,138.18909 106.2993,138.18909 106.2993,152.36233 95.66937,152.36233 95.66937,166.53557 106.2993,166.53557 106.2993,180.70881 95.66937,180.70881 95.66937,194.88205 106.2993,194.88205 106.2993,214.37026 95.66937,214.37026 95.66937,233.85846 83.267785,233.85846 83.267785,223.22853 60.23627,223.22853 60.23627,233.85846 46.06303,233.85846 46.06303,223.22853 23.031515,223.22853 23.031515,233.85846 10.62993,233.85846 10.62993,214.37026 0,214.37026 0,194.88205 10.62993,194.88205 10.62993,180.70881 0,180.70881 0,166.53557 10.62993,166.53557 10.62993,152.36233 0,152.36233 0,138.18909 10.62993,138.18909 10.62993,124.01585 0,124.01585 0,109.84261 10.62993,109.84261 10.62993,95.66937 0,95.66937 0,81.49613 10.62993,81.49613 10.62993,67.32289 0,67.32289 0,53.14965 10.62993,53.14965 10.62993,38.97641 0,38.97641 0,19.488205 10.62993,19.488205 10.62993,0 23.031515,0 23.031515,10.62993 46.06303,10.62993 46.06303,0 60.23627,0 60.23627,10.62993 83.267785,10.62993 83.267785,0 "
       id="polygon4046" />
  </g>
  <!-- Top-->
  <g
     transform="translate(0.35433099,234.21282)"
     id="g4048">
    <polygon
       style="fill:none;stroke:#000000;stroke-width:0.70866197"
       points="88.58275,10.62993 88.58275,0 102.75599,0 102.75599,10.62993 116.92923,10.62993 116.92923,0 131.10247,0 131.10247,10.62993 145.27571,10.62993 145.27571,0 159.44895,0 159.44895,10.62993 173.62219,10.62993 173.62219,0 187.79543,0 187.79543,10.62993 201.96867,10.62993 201.96867,0 216.14191,0 216.14191,10.62993 230.31515,10.62993 230.31515,0 244.48839,0 244.48839,10.62993 258.66163,10.62993 258.66163,0 281.69315,0 281.69315,10.62993 294.09473,10.62993 294.09473,23.031515 304.72466,23.031515 304.72466,46.06303 294.09473,46.06303 294.09473,60.23627 304.72466,60.23627 304.72466,83.267785 294.09473,83.267785 294.09473,95.66937 281.69315,95.66937 281.69315,106.2993 258.66163,106.2993 258.66163,95.66937 244.48839,95.66937 244.48839,106.2993 230.31515,106.2993 230.31515,95.66937 216.14191,95.66937 216.14191,106.2993 201.96867,106.2993 201.96867,95.66937 187.79543,95.66937 187.79543,106.2993 173.62219,106.2993 173.62219,95.66937 159.44895,95.66937 159.44895,106.2993 145.27571,106.2993 145.27571,95.66937 131.10247,95.66937 131.10247,106.2993 116.92923,106.2993 116.92923,95.66937 102.75599,95.66937 102.75599,106.2993 88.58275,106.2993 88.58275,95.66937 74.40951,95.66937 74.40951,106.2993 60.23627,106.2993 60.23627,95.66937 46.06303,95.66937 46.06303,106.2993 23.031515,106.2993 23.031515,95.66937 10.62993,95.66937 10.62993,83.267785 0,83.267785 0,60.23627 10.62993,60.23627 10.62993,46.06303 0,46.06303 0,23.031515 10.62993,23.031515 10.62993,10.62993 23.031515,10.62993 23.031515,0 46.06303,0 46.06303,10.62993 60.23627,10.62993 60.23627,0 74.40951,0 74.40951,10.62993 "
       id="polygon4050" />
  </g>
  <!-- Bottom-->
  <g
     transform="translate(305.07899,234.21282)"
     id="g4052">
    <polygon
       style="fill:none;stroke:#000000;stroke-width:0.70866197"
       points="88.58275,10.62993 88.58275,0 102.75599,0 102.75599,10.62993 116.92923,10.62993 116.92923,0 131.10247,0 131.10247,10.62993 145.27571,10.62993 145.27571,0 159.44895,0 159.44895,10.62993 173.62219,10.62993 173.62219,0 187.79543,0 187.79543,10.62993 201.96867,10.62993 201.96867,0 216.14191,0 216.14191,10.62993 230.31515,10.62993 230.31515,0 244.48839,0 244.48839,10.62993 258.66163,10.62993 258.66163,0 281.69315,0 281.69315,10.62993 294.09473,10.62993 294.09473,23.031515 304.72466,23.031515 304.72466,46.06303 294.09473,46.06303 294.09473,60.23627 304.72466,60.23627 304.72466,83.267785 294.09473,83.267785 294.09473,95.66937 281.69315,95.66937 281.69315,106.2993 258.66163,106.2993 258.66163,95.66937 244.48839,95.66937 244.48839,106.2993 230.31515,106.2993 230.31515,95.66937 216.14191,95.66937 216.14191,106.2993 201.96867,106.2993 201.96867,95.66937 187.79543,95.66937 187.79543,106.2993 173.62219,106.2993 173.62219,95.66937 159.44895,95.66937 159.44895,106.2993 145.27571,106.2993 145.27571,95.66937 131.10247,95.66937 131.10247,106.2993 116.92923,106.2993 116.92923,95.66937 102.75599,95.66937 102.75599,106.2993 88.58275,106.2993 88.58275,95.66937 74.40951,95.66937 74.40951,106.2993 60.23627,106.2993 60.23627,95.66937 46.06303,95.66937 46.06303,106.2993 23.031515,106.2993 23.031515,95.66937 10.62993,95.66937 10.62993,83.267785 0,83.267785 0,60.23627 10.62993,60.23627 10.62993,46.06303 0,46.06303 0,23.031515 10.62993,23.031515 10.62993,10.62993 23.031515,10.62993 23.031515,0 46.06303,0 46.06303,10.62993 60.23627,10.62993 60.23627,0 74.40951,0 74.40951,10.62993 "
       id="polygon4054" />
  </g>
  <rect
     style="fill:none;stroke:#ff0000"
     id="rect4089"
     width="166.53558"
     height="124.01585"
     x="69.448883"
     y="39.330692" />
  <path
     sodipodi:type="arc"
     style="fill:none;stroke:#ff0000"
     id="path4120"
     sodipodi:cx="29.097488"
     sodipodi:cy="53.900642"
     sodipodi:rx="4.2943392"
     sodipodi:ry="4.2943392"
     d="m 33.391828,53.900642 a 4.2943392,4.2943392 0 1 1 -8.588679,0 4.2943392,4.2943392 0 1 1 8.588679,0 z"
     transform="matrix(1.1085918,0,0,1.1085918,28.333362,-8.0215599)" />
  <path
     sodipodi:type="arc"
     style="fill:none;stroke:#ff0000"
     id="path4120-1"
     sodipodi:cx="29.097488"
     sodipodi:cy="53.900642"
     sodipodi:rx="4.2943392"
     sodipodi:ry="4.2943392"
     d="m 33.391828,53.900642 a 4.2943392,4.2943392 0 1 1 -8.588679,0 4.2943392,4.2943392 0 1 1 8.588679,0 z"
     transform="matrix(1.1085918,0,0,1.1085918,212.58564,91.191203)" />
  <path
     sodipodi:type="arc"
     style="fill:none;stroke:#ff0000"
     id="path4120-7"
     sodipodi:cx="29.097488"
     sodipodi:cy="53.900642"
     sodipodi:rx="4.2943392"
     sodipodi:ry="4.2943392"
     d="m 33.391828,53.900642 a 4.2943392,4.2943392 0 1 1 -8.588679,0 4.2943392,4.2943392 0 1 1 8.588679,0 z"
     transform="matrix(1.1085918,0,0,1.1085918,212.58564,-8.0215599)" />
  <path
     sodipodi:type="arc"
     style="fill:none;stroke:#ff0000"
     id="path4120-2"
     sodipodi:cx="29.097488"
     sodipodi:cy="53.900642"
     sodipodi:rx="4.2943392"
     sodipodi:ry="4.2943392"
     d="m 33.391828,53.900642 a 4.2943392,4.2943392 0 1 1 -8.588679,0 4.2943392,4.2943392 0 1 1 8.588679,0 z"
     transform="matrix(1.1085918,0,0,1.1085918,28.333362,91.191203)" />
  <rect
     style="fill:none;stroke:#ff0000;stroke-width:0.97525275;stroke-linecap:round;stroke-linejoin:round;stroke-miterlimit:4;stroke-opacity:1;stroke-dasharray:none"
     id="rect4662"
     width="41.544468"
     height="38.00116"
     x="53.991619"
     y="170.92078" />
  <rect
     style="fill:none;stroke:#ff0000;stroke-width:0.97525358;stroke-linecap:round;stroke-linejoin:round;stroke-miterlimit:4;stroke-opacity:1;stroke-dasharray:none"
     id="rect4662-7"
     width="41.544502"
     height="38.001194"
     x="209.89728"
     y="170.92078" />
  <g
     style="font-size:16px;font-style:normal;font-variant:normal;font-weight:normal;font-stretch:normal;text-align:center;line-height:125%;letter-spacing:4.50000381px;word-spacing:0px;text-anchor:middle;fill:none;stroke:#00ff00;font-family:Purisa;-inkscape-font-specification:Purisa"
     id="text4725">
    <path
       d="m 76.300106,26.601481 c 1.828119,3.744146 2.742181,5.625005 2.742189,5.642583 l -2.838869,0 C 75.295217,30.392502 74.603811,29.00969 74.129205,28.095623 73.660452,27.181565 73.426077,26.718675 73.42608,26.70695 l 0,5.537114 -2.777346,0 0,-12.498057 4.860355,0 c 0.480464,1.2e-5 0.931636,0.09083 1.353517,0.272461 0.421869,0.181653 0.78808,0.430676 1.098634,0.747071 0.316399,0.310558 0.565422,0.676769 0.747071,1.098634 0.181632,0.421885 0.272453,0.873057 0.272461,1.353516 -8e-6,0.410166 -0.06739,0.799814 -0.202149,1.168947 -0.134773,0.369148 -0.322273,0.703133 -0.5625,1.001954 -0.240242,0.298835 -0.524422,0.553717 -0.85254,0.764649 -0.328132,0.210943 -0.682624,0.360357 -1.063477,0.448242 m -1.485353,-1.300782 c 0.287105,7e-6 0.52148,-0.05273 0.703125,-0.158203 0.181636,-0.111321 0.322261,-0.260735 0.421876,-0.448243 0.0996,-0.193352 0.166987,-0.416008 0.202148,-0.667969 0.04101,-0.251945 0.06152,-0.521476 0.06152,-0.808595 -6e-6,-0.2871 -0.02051,-0.556631 -0.06152,-0.808594 -0.03516,-0.251943 -0.102544,-0.47167 -0.202148,-0.65918 -0.09962,-0.193349 -0.24024,-0.342763 -0.421876,-0.448243 -0.181645,-0.111317 -0.41602,-0.166981 -0.703125,-0.166992 l -1.388673,0 0,4.166019 1.388673,0"
       style="font-size:18.00001526px;font-weight:bold;stroke:#00ff00;font-family:Envy Code R;-inkscape-font-specification:Envy Code R Bold"
       id="path4788" />
    <path
       d="m 87.594061,28.078045 c -3e-6,0.462895 0.0059,0.867192 0.01758,1.212892 0.01758,0.345706 0.07031,0.635745 0.158203,0.870118 0.08789,0.228517 0.225583,0.401369 0.413086,0.518555 0.187497,0.117189 0.454099,0.175783 0.799806,0.175781 l 4.166019,0 0,1.388673 -4.860356,0 c -0.521487,0 -0.996097,-0.09082 -1.423829,-0.272461 -0.427736,-0.18164 -0.793947,-0.427734 -1.098634,-0.738282 -0.298829,-0.316405 -0.533204,-0.685545 -0.703125,-1.107423 -0.164063,-0.421872 -0.246094,-0.873044 -0.246094,-1.353516 l 0,-2.777346 c 0,-0.521478 0.117187,-0.996088 0.351563,-1.42383 0.240233,-0.427726 0.55664,-0.791008 0.949219,-1.089844 0.392577,-0.304679 0.837889,-0.539054 1.335939,-0.703126 0.498044,-0.169912 1.007809,-0.254873 1.529298,-0.254883 0.52148,10e-6 1.031246,0.08497 1.529298,0.254883 0.498041,0.164072 0.943354,0.398447 1.335939,0.703126 0.392571,0.298836 0.706047,0.662118 0.94043,1.089844 0.240227,0.427742 0.360344,0.902352 0.360352,1.42383 l 0,2.083009 -5.554692,0 m 2.777346,-1.388673 c -6e-6,-0.521479 -0.0088,-0.958002 -0.02637,-1.309571 -0.01172,-0.357415 -0.06153,-0.644525 -0.149414,-0.861329 -0.0879,-0.216789 -0.225592,-0.372063 -0.413087,-0.465821 -0.187505,-0.09374 -0.454106,-0.140617 -0.799805,-0.140625 -0.345707,8e-6 -0.612309,0.04688 -0.799806,0.140625 -0.187503,0.09376 -0.325198,0.249032 -0.413086,0.465821 -0.08789,0.216804 -0.140628,0.503914 -0.158203,0.861329 -0.01172,0.351569 -0.01758,0.788092 -0.01758,1.309571 l 2.777346,0"
       style="font-size:18.00001526px;font-weight:bold;stroke:#00ff00;font-family:Envy Code R;-inkscape-font-specification:Envy Code R Bold"
       id="path4790" />
    <path
       d="m 107.31673,22.523353 -2.77734,9.720711 -2.77735,0 -2.777344,-9.720711 2.777344,0 1.38868,6.943365 1.38867,-6.943365 2.77734,0"
       style="font-size:18.00001526px;font-weight:bold;stroke:#00ff00;font-family:Envy Code R;-inkscape-font-specification:Envy Code R Bold"
       id="path4792" />
    <path
       d="m 117.3187,21.13468 c -0.28712,1.1e-5 -0.52149,0.05568 -0.70313,0.166992 -0.18164,0.10548 -0.32227,0.254894 -0.42187,0.448243 -0.0996,0.18751 -0.16993,0.407237 -0.21094,0.65918 -0.0352,0.251963 -0.0527,0.521494 -0.0527,0.808594 l 0,5.554693 c 0,0.287113 0.0176,0.556644 0.0527,0.808594 0.041,0.251956 0.11132,0.474612 0.21094,0.667969 0.0996,0.187502 0.24023,0.336916 0.42187,0.448243 0.18164,0.10547 0.41601,0.158205 0.70313,0.158203 0.22851,2e-6 0.42773,-0.03808 0.59765,-0.114258 0.17578,-0.08203 0.32226,-0.187498 0.43946,-0.316406 0.11718,-0.134764 0.20507,-0.284178 0.26367,-0.448243 0.0586,-0.16406 0.0879,-0.333982 0.0879,-0.509766 l 2.70703,0 c 0.0176,0.345706 -0.0879,0.68555 -0.3164,1.019532 -0.22853,0.333986 -0.53614,0.632815 -0.92286,0.896485 -0.38672,0.257814 -0.8291,0.465822 -1.32714,0.624024 -0.49806,0.158204 -1.00782,0.237305 -1.5293,0.237305 -0.52149,0 -1.03126,-0.08203 -1.5293,-0.246094 -0.49805,-0.169921 -0.94336,-0.404296 -1.33594,-0.703125 -0.39258,-0.304687 -0.70899,-0.670898 -0.94922,-1.098634 -0.23437,-0.427732 -0.35156,-0.902342 -0.35156,-1.423829 l 0,-5.554693 c 0,-0.521475 0.11719,-0.996084 0.35156,-1.423829 0.24023,-0.427724 0.55664,-0.791005 0.94922,-1.089845 0.39258,-0.304675 0.83789,-0.53905 1.33594,-0.703125 0.49804,-0.16991 1.00781,-0.254871 1.5293,-0.254883 0.52148,1.2e-5 1.03124,0.07911 1.5293,0.237305 0.49804,0.158215 0.94042,0.369153 1.32714,0.632813 0.38672,0.257824 0.69433,0.553722 0.92286,0.887696 0.2285,0.333995 0.33397,0.673839 0.3164,1.019532 l -2.70703,0 c -1e-5,-0.175772 -0.0293,-0.345693 -0.0879,-0.509766 -0.0586,-0.164052 -0.14649,-0.310537 -0.26367,-0.439454 -0.1172,-0.134755 -0.26368,-0.240223 -0.43946,-0.316406 -0.16992,-0.08202 -0.36914,-0.123036 -0.59765,-0.123047"
       style="font-size:18.00001526px;font-weight:bold;stroke:#00ff00;font-family:Envy Code R;-inkscape-font-specification:Envy Code R Bold"
       id="path4794" />
    <path
       d="m 130.79234,32.244064 c -0.38086,0 -0.77637,-0.04687 -1.18652,-0.140625 -0.41016,-0.09375 -0.78516,-0.249023 -1.125,-0.46582 -0.33985,-0.216797 -0.61817,-0.500976 -0.83497,-0.85254 -0.21679,-0.357421 -0.32519,-0.796874 -0.32519,-1.318361 0,-0.521481 0.1084,-0.958005 0.32519,-1.309571 0.2168,-0.357418 0.49512,-0.644527 0.83497,-0.861329 0.33984,-0.216792 0.71484,-0.372065 1.125,-0.465821 0.41015,-0.09374 0.80566,-0.140619 1.18652,-0.140625 l 2.08301,0 0,-0.694336 c -1e-5,-1.388666 -0.69434,-2.083002 -2.08301,-2.08301 l -2.08301,0 0,-1.388673 2.77735,0 c 0.52148,10e-6 1.03124,0.08497 1.5293,0.254883 0.49804,0.164072 0.94335,0.398447 1.33593,0.703126 0.39258,0.298836 0.70605,0.662118 0.94043,1.089844 0.24023,0.427742 0.36035,0.902352 0.36036,1.42383 l 0,6.249028 -4.86036,0 m 0.69434,-4.166019 c -0.19337,4e-6 -0.37501,0.0088 -0.54493,0.02637 -0.16406,0.01172 -0.31055,0.06153 -0.43945,0.149415 -0.12305,0.08789 -0.22266,0.225589 -0.29883,0.413086 -0.0703,0.187503 -0.10547,0.454105 -0.10547,0.799805 0,0.345706 0.0352,0.612308 0.10547,0.799806 0.0762,0.187502 0.17578,0.325197 0.29883,0.413086 0.1289,0.08789 0.27539,0.140626 0.43945,0.158203 0.16992,0.01172 0.35156,0.01758 0.54493,0.01758 l 1.38867,0 0,-2.777346 -1.38867,0"
       style="font-size:18.00001526px;font-weight:bold;stroke:#00ff00;font-family:Envy Code R;-inkscape-font-specification:Envy Code R Bold"
       id="path4796" />
    <path
       d="m 147.73767,22.523353 c 0.34569,10e-6 0.64745,0.04688 0.90527,0.140625 0.26367,0.09376 0.48046,0.249033 0.65039,0.465821 0.17578,0.216806 0.30761,0.54786 0.39551,0.993165 0.0879,0.439461 0.13183,0.91993 0.13184,1.441407 l 0,6.679693 -2.08301,0 0,-6.679693 c -1e-5,-0.175774 -0.003,-0.345696 -0.009,-0.509766 -0.006,-0.164055 -0.0322,-0.31054 -0.0791,-0.439453 -0.041,-0.134758 -0.10841,-0.240227 -0.20215,-0.316407 -0.0938,-0.08202 -0.22852,-0.123039 -0.4043,-0.123047 -0.17579,8e-6 -0.31055,0.04102 -0.4043,0.123047 -0.0937,0.07618 -0.16406,0.181649 -0.21093,0.316407 -0.041,0.128913 -0.0645,0.275398 -0.0703,0.439453 -0.006,0.16407 -0.009,0.333992 -0.009,0.509766 l 0,6.679693 -1.38867,0 0,-6.679693 c 0,-0.345696 -0.041,-0.612298 -0.12305,-0.799805 -0.0762,-0.187493 -0.18164,-0.325188 -0.3164,-0.413086 -0.12891,-0.08788 -0.2754,-0.137688 -0.43946,-0.149415 -0.16406,-0.01757 -0.33398,-0.02636 -0.50976,-0.02637 l 0,8.068366 -2.08301,0 0,-9.720711 2.77734,0 c 0.17578,10e-6 0.3457,0.04103 0.50977,0.123047 0.16406,0.07618 0.31054,0.18165 0.43945,0.316406 0.13477,0.128916 0.24023,0.319346 0.31641,0.57129 0.082,0.251962 0.12304,0.465829 0.12305,0.641602 -1e-5,-0.175773 0.0439,-0.38964 0.13183,-0.641602 0.0879,-0.251944 0.2168,-0.442374 0.38672,-0.57129 0.17578,-0.134756 0.39258,-0.240225 0.65039,-0.316406 0.26367,-0.08202 0.56836,-0.123037 0.91407,-0.123047"
       style="font-size:18.00001526px;font-weight:bold;stroke:#00ff00;font-family:Envy Code R;-inkscape-font-specification:Envy Code R Bold"
       id="path4798" />
    <path
       d="m 158.43397,19.746007 1.38867,8.332038 1.38867,-8.332038 2.81251,0 -2.77735,12.498057 -2.8125,0 -2.77735,-12.498057 2.77735,0"
       style="font-size:18.00001526px;font-weight:bold;stroke:#00ff00;font-family:Envy Code R;-inkscape-font-specification:Envy Code R Bold"
       id="path4800" />
    <path
       d="m 172.60194,23.912026 -1.38867,0 0,-1.388673 4.16602,0 0,9.720711 -2.77735,0 0,-8.332038 m 0,-4.166019 2.77735,0 0,1.388673 -2.77735,0 0,-1.388673"
       style="font-size:18.00001526px;font-weight:bold;stroke:#00ff00;font-family:Envy Code R;-inkscape-font-specification:Envy Code R Bold"
       id="path4802" />
    <path
       d="m 186.76993,28.078045 c 0,0.462895 0.006,0.867192 0.0176,1.212892 0.0176,0.345706 0.0703,0.635745 0.1582,0.870118 0.0879,0.228517 0.22558,0.401369 0.41309,0.518555 0.18749,0.117189 0.45409,0.175783 0.7998,0.175781 l 4.16602,0 0,1.388673 -4.86035,0 c -0.52149,0 -0.9961,-0.09082 -1.42383,-0.272461 -0.42774,-0.18164 -0.79395,-0.427734 -1.09864,-0.738282 -0.29883,-0.316405 -0.5332,-0.685545 -0.70312,-1.107423 -0.16407,-0.421872 -0.2461,-0.873044 -0.2461,-1.353516 l 0,-2.777346 c 0,-0.521478 0.11719,-0.996088 0.35157,-1.42383 0.24023,-0.427726 0.55664,-0.791008 0.94922,-1.089844 0.39257,-0.304679 0.83788,-0.539054 1.33593,-0.703126 0.49805,-0.169912 1.00781,-0.254873 1.5293,-0.254883 0.52148,10e-6 1.03125,0.08497 1.5293,0.254883 0.49804,0.164072 0.94335,0.398447 1.33594,0.703126 0.39257,0.298836 0.70605,0.662118 0.94043,1.089844 0.24023,0.427742 0.36034,0.902352 0.36035,1.42383 l 0,2.083009 -5.55469,0 m 2.77734,-1.388673 c 0,-0.521479 -0.009,-0.958002 -0.0264,-1.309571 -0.0117,-0.357415 -0.0615,-0.644525 -0.14942,-0.861329 -0.0879,-0.216789 -0.22559,-0.372063 -0.41308,-0.465821 -0.18751,-0.09374 -0.45411,-0.140617 -0.79981,-0.140625 -0.34571,8e-6 -0.61231,0.04688 -0.7998,0.140625 -0.18751,0.09376 -0.3252,0.249032 -0.41309,0.465821 -0.0879,0.216804 -0.14063,0.503914 -0.1582,0.861329 -0.0117,0.351569 -0.0176,0.788092 -0.0176,1.309571 l 2.77734,0"
       style="font-size:18.00001526px;font-weight:bold;stroke:#00ff00;font-family:Envy Code R;-inkscape-font-specification:Envy Code R Bold"
       id="path4804" />
    <path
       d="m 198.16057,22.523353 2.08301,0 0,6.943365 c -1e-5,0.175784 0.003,0.345706 0.009,0.509766 0.006,0.164065 0.0293,0.313479 0.0703,0.448243 0.0469,0.128908 0.11718,0.234377 0.21094,0.316406 0.0937,0.07617 0.22851,0.11426 0.40429,0.114258 0.17578,2e-6 0.31055,-0.07617 0.4043,-0.228516 0.0937,-0.152342 0.16113,-0.336912 0.20215,-0.553711 0.0469,-0.216795 0.0732,-0.442381 0.0791,-0.676758 0.006,-0.240232 0.009,-0.44824 0.009,-0.624024 l 0,-2.08301 1.38867,0 0,2.08301 c 0,0.175784 0.003,0.383792 0.009,0.624024 0.006,0.234377 0.0293,0.459963 0.0703,0.676758 0.0469,0.216799 0.11719,0.401369 0.21094,0.553711 0.0937,0.152346 0.22851,0.228518 0.4043,0.228516 0.17577,2e-6 0.31054,-0.03808 0.4043,-0.114258 0.0937,-0.08203 0.16112,-0.187498 0.20214,-0.316406 0.0469,-0.134764 0.0732,-0.284178 0.0791,-0.448243 0.006,-0.16406 0.009,-0.333982 0.009,-0.509766 l 0,-6.943365 2.08301,0 0,6.249029 c -1e-5,0.521487 -0.0469,0.996097 -0.14063,1.423829 -0.0938,0.427736 -0.24903,0.793947 -0.46582,1.098634 -0.21681,0.298829 -0.50391,0.533204 -0.86133,0.703125 -0.35157,0.164063 -0.78809,0.246094 -1.30957,0.246094 -0.17579,0 -0.34571,-0.03809 -0.50977,-0.114258 -0.16406,-0.08203 -0.31348,-0.187499 -0.44824,-0.316406 -0.12891,-0.134765 -0.23438,-0.284179 -0.31641,-0.448243 -0.0762,-0.164061 -0.11426,-0.333983 -0.11425,-0.509766 -1e-5,0.175783 -0.041,0.345705 -0.12305,0.509766 -0.0762,0.164064 -0.18165,0.313478 -0.31641,0.448243 -0.12891,0.128907 -0.27539,0.234375 -0.43945,0.316406 -0.16407,0.07617 -0.33399,0.114258 -0.50977,0.114258 -0.52148,0 -0.96094,-0.08203 -1.31836,-0.246094 -0.35156,-0.169921 -0.63574,-0.404296 -0.85254,-0.703125 -0.21679,-0.304687 -0.37207,-0.670898 -0.46582,-1.098634 -0.0937,-0.427732 -0.14062,-0.902342 -0.14062,-1.423829 l 0,-6.249029"
       style="font-size:18.00001526px;font-weight:bold;stroke:#00ff00;font-family:Envy Code R;-inkscape-font-specification:Envy Code R Bold"
       id="path4806" />
    <path
       d="m 215.10589,28.078045 c 0,0.462895 0.006,0.867192 0.0176,1.212892 0.0176,0.345706 0.0703,0.635745 0.1582,0.870118 0.0879,0.228517 0.22558,0.401369 0.41309,0.518555 0.18749,0.117189 0.4541,0.175783 0.7998,0.175781 l 4.16602,0 0,1.388673 -4.86035,0 c -0.52149,0 -0.9961,-0.09082 -1.42383,-0.272461 -0.42774,-0.18164 -0.79395,-0.427734 -1.09864,-0.738282 -0.29883,-0.316405 -0.5332,-0.685545 -0.70312,-1.107423 -0.16407,-0.421872 -0.2461,-0.873044 -0.2461,-1.353516 l 0,-2.777346 c 0,-0.521478 0.11719,-0.996088 0.35157,-1.42383 0.24023,-0.427726 0.55664,-0.791008 0.94922,-1.089844 0.39257,-0.304679 0.83788,-0.539054 1.33593,-0.703126 0.49805,-0.169912 1.00781,-0.254873 1.5293,-0.254883 0.52148,10e-6 1.03125,0.08497 1.5293,0.254883 0.49804,0.164072 0.94335,0.398447 1.33594,0.703126 0.39257,0.298836 0.70605,0.662118 0.94043,1.089844 0.24023,0.427742 0.36034,0.902352 0.36035,1.42383 l 0,2.083009 -5.55469,0 m 2.77735,-1.388673 c -1e-5,-0.521479 -0.009,-0.958002 -0.0264,-1.309571 -0.0117,-0.357415 -0.0615,-0.644525 -0.14942,-0.861329 -0.0879,-0.216789 -0.22559,-0.372063 -0.41308,-0.465821 -0.18751,-0.09374 -0.45411,-0.140617 -0.79981,-0.140625 -0.3457,8e-6 -0.61231,0.04688 -0.7998,0.140625 -0.18751,0.09376 -0.3252,0.249032 -0.41309,0.465821 -0.0879,0.216804 -0.14063,0.503914 -0.1582,0.861329 -0.0117,0.351569 -0.0176,0.788092 -0.0176,1.309571 l 2.77735,0"
       style="font-size:18.00001526px;font-weight:bold;stroke:#00ff00;font-family:Envy Code R;-inkscape-font-specification:Envy Code R Bold"
       id="path4808" />
    <path
       d="m 226.49653,32.244064 0,-9.720711 2.77734,0 0,0.703126 c 0.17578,-0.175773 0.34863,-0.310538 0.51856,-0.404298 0.17578,-0.09374 0.34863,-0.161123 0.51855,-0.202148 0.17578,-0.04687 0.34863,-0.07323 0.51856,-0.0791 0.17578,-0.01171 0.35156,-0.01757 0.52734,-0.01758 0.52148,10e-6 0.99316,0.04688 1.41504,0.140625 0.42773,0.09376 0.79101,0.249033 1.08985,0.465821 0.29882,0.216806 0.52733,0.503915 0.68555,0.861329 0.15819,0.35157 0.2285,0.788094 0.21093,1.309571 l -2.70703,0 c -0.0469,-0.134759 -0.082,-0.260735 -0.10547,-0.37793 -0.0234,-0.123039 -0.0469,-0.234368 -0.0703,-0.333985 -0.0234,-0.105461 -0.0586,-0.199211 -0.10547,-0.28125 -0.041,-0.08788 -0.10547,-0.158195 -0.19336,-0.210938 -0.0879,-0.05859 -0.20508,-0.10253 -0.35156,-0.131836 -0.14649,-0.03515 -0.33399,-0.05273 -0.5625,-0.05273 -0.34571,8e-6 -0.61231,0.04395 -0.79981,0.131836 -0.1875,0.0879 -0.3252,0.219735 -0.41309,0.395508 -0.0879,0.16993 -0.14062,0.386727 -0.1582,0.650391 -0.0117,0.25782 -0.0176,0.559578 -0.0176,0.905275 l 0,6.249028 -2.77734,0"
       style="font-size:18.00001526px;font-weight:bold;stroke:#00ff00;font-family:Envy Code R;-inkscape-font-specification:Envy Code R Bold"
       id="path4810" />
  </g>
  <rect
     style="fill:none;stroke:#00ff00;stroke-width:0.8686589"
     id="rect4731"
     width="26.946251"
     height="26.946251"
     x="-112.44025"
     y="156.14906"
     transform="matrix(0.70710678,-0.70710678,0.70710678,0.70710678,0,0)" />
  <rect
     style="fill:none;stroke:#00ff00;stroke-width:0.86865884"
     id="rect4731-8"
     width="26.946251"
     height="26.946251"
     x="32.878624"
     y="301.46802"
     transform="matrix(0.70710678,-0.70710678,0.70710678,0.70710678,0,0)" />
  <rect
     style="fill:none;stroke:#00ff00;stroke-width:0.86865884"
     id="rect4731-4"
     width="26.946251"
     height="26.946251"
     x="-203.39449"
     y="96.458046"
     transform="matrix(0,-1,1,0,0,0)" />
  <rect
     style="fill:none;stroke:#00ff00;stroke-width:0.86865884"
     id="rect4731-4-2"
     width="26.946251"
     height="26.946251"
     x="-203.3945"
     y="182.02907"
     transform="matrix(0,-1,1,0,0,0)" />
  <rect
     style="fill:none;stroke:#ff0000;stroke-width:0.80700678;stroke-linecap:round;stroke-linejoin:round;stroke-miterlimit:4;stroke-opacity:1;stroke-dasharray:none"
     id="rect3977-5"
     width="48.799335"
     height="27.539474"
     x="128.317"
     y="252.33287" />
</svg>
